<?xml version="1.0" encoding="UTF-8" standalone="no"?><svg xmlns="http://www.w3.org/2000/svg" xmlns:xlink="http://www.w3.org/1999/xlink" contentScriptType="application/ecmascript" contentStyleType="text/css" height="566px" preserveAspectRatio="none" style="width:1738px;height:566px;" version="1.1" viewBox="0 0 1738 566" width="1738px" zoomAndPan="magnify"><defs><filter height="300%" id="fhnnzpxsr69le" width="300%" x="-1" y="-1"><feGaussianBlur result="blurOut" stdDeviation="2.0"/><feColorMatrix in="blurOut" result="blurOut2" type="matrix" values="0 0 0 0 0 0 0 0 0 0 0 0 0 0 0 0 0 0 .4 0"/><feOffset dx="4.0" dy="4.0" in="blurOut2" result="blurOut3"/><feBlend in="SourceGraphic" in2="blurOut3" mode="normal"/></filter></defs><g><!--cluster java.sql--><polygon fill="#FFFFFF" filter="url(#fhnnzpxsr69le)" points="631,382,709,382,716,406.4775,745,406.4775,745,483,631,483,631,382" style="stroke: #000000; stroke-width: 1.5;"/><line style="stroke: #000000; stroke-width: 1.5;" x1="631" x2="716" y1="406.4775" y2="406.4775"/><text fill="#000000" font-family="sans-serif" font-size="14" font-weight="bold" lengthAdjust="spacingAndGlyphs" textLength="72" x="635" y="398.8135">java.sql</text><!--cluster com.alibaba.druid.pool--><polygon fill="#FFFFFF" filter="url(#fhnnzpxsr69le)" points="22,24,226,24,233,48.4775,641,48.4775,641,358,22,358,22,24" style="stroke: #000000; stroke-width: 1.5;"/><line style="stroke: #000000; stroke-width: 1.5;" x1="22" x2="233" y1="48.4775" y2="48.4775"/><text fill="#000000" font-family="sans-serif" font-size="14" font-weight="bold" lengthAdjust="spacingAndGlyphs" textLength="198" x="26" y="40.8135">com.alibaba.druid.pool</text><!--cluster javax.sql--><polygon fill="#FFFFFF" filter="url(#fhnnzpxsr69le)" points="948,257,1035,257,1042,281.4775,1317,281.4775,1317,483,948,483,948,257" style="stroke: #000000; stroke-width: 1.5;"/><line style="stroke: #000000; stroke-width: 1.5;" x1="948" x2="1042" y1="281.4775" y2="281.4775"/><text fill="#000000" font-family="sans-serif" font-size="14" font-weight="bold" lengthAdjust="spacingAndGlyphs" textLength="81" x="952" y="273.8135">javax.sql</text><!--cluster com.alibaba.druid.pool.jdbc--><polygon fill="#FFFFFF" filter="url(#fhnnzpxsr69le)" points="665,257,914,257,921,281.4775,924,281.4775,924,358,665,358,665,257" style="stroke: #000000; stroke-width: 1.5;"/><line style="stroke: #000000; stroke-width: 1.5;" x1="665" x2="921" y1="281.4775" y2="281.4775"/><text fill="#000000" font-family="sans-serif" font-size="14" font-weight="bold" lengthAdjust="spacingAndGlyphs" textLength="243" x="669" y="273.8135">com.alibaba.druid.pool.jdbc</text><!--cluster javax.management--><polygon fill="#FFFFFF" filter="url(#fhnnzpxsr69le)" points="1199,132,1349,132,1356,156.4775,1383,156.4775,1383,233,1199,233,1199,132" style="stroke: #000000; stroke-width: 1.5;"/><line style="stroke: #000000; stroke-width: 1.5;" x1="1199" x2="1356" y1="156.4775" y2="156.4775"/><text fill="#000000" font-family="sans-serif" font-size="14" font-weight="bold" lengthAdjust="spacingAndGlyphs" textLength="144" x="1203" y="148.8135">javax.management</text><!--cluster javax.naming--><polygon fill="#FFFFFF" filter="url(#fhnnzpxsr69le)" points="715,132,829,132,836,156.4775,871,156.4775,871,233,715,233,715,132" style="stroke: #000000; stroke-width: 1.5;"/><line style="stroke: #000000; stroke-width: 1.5;" x1="715" x2="836" y1="156.4775" y2="156.4775"/><text fill="#000000" font-family="sans-serif" font-size="14" font-weight="bold" lengthAdjust="spacingAndGlyphs" textLength="108" x="719" y="148.8135">javax.naming</text><!--cluster javax.lang--><polygon fill="#FFFFFF" filter="url(#fhnnzpxsr69le)" points="895,132,991,132,998,156.4775,1023,156.4775,1023,233,895,233,895,132" style="stroke: #000000; stroke-width: 1.5;"/><line style="stroke: #000000; stroke-width: 1.5;" x1="895" x2="998" y1="156.4775" y2="156.4775"/><text fill="#000000" font-family="sans-serif" font-size="14" font-weight="bold" lengthAdjust="spacingAndGlyphs" textLength="90" x="899" y="148.8135">javax.lang</text><!--cluster javax.io--><polygon fill="#FFFFFF" filter="url(#fhnnzpxsr69le)" points="1047,132,1125,132,1132,156.4775,1175,156.4775,1175,233,1047,233,1047,132" style="stroke: #000000; stroke-width: 1.5;"/><line style="stroke: #000000; stroke-width: 1.5;" x1="1047" x2="1132" y1="156.4775" y2="156.4775"/><text fill="#000000" font-family="sans-serif" font-size="14" font-weight="bold" lengthAdjust="spacingAndGlyphs" textLength="72" x="1051" y="148.8135">javax.io</text><!--class java.sql.Wrapper--><rect fill="#FEFECE" filter="url(#fhnnzpxsr69le)" height="48" id="java.sql.Wrapper" style="stroke: #A80036; stroke-width: 1.5;" width="81" x="647.5" y="419"/><ellipse cx="662.5" cy="435" fill="#B4A7E5" rx="11" ry="11" style="stroke: #A80036; stroke-width: 1.0;"/><path d="M666.3125,441 L658.875,441 L658.875,439.9844 L661.3125,439.8125 L661.3125,430.0469 L658.875,429.8906 L658.875,428.8594 L666.3125,428.8594 L666.3125,429.8906 L663.875,430.0469 L663.875,439.8125 L666.3125,439.9844 L666.3125,441 Z "/><text fill="#000000" font-family="sans-serif" font-size="12" font-style="italic" lengthAdjust="spacingAndGlyphs" textLength="49" x="676.5" y="439.7783">Wrapper</text><line style="stroke: #A80036; stroke-width: 1.5;" x1="648.5" x2="727.5" y1="451" y2="451"/><line style="stroke: #A80036; stroke-width: 1.5;" x1="648.5" x2="727.5" y1="459" y2="459"/><!--class com.alibaba.druid.pool.WrapperAdapter--><rect fill="#FEFECE" filter="url(#fhnnzpxsr69le)" height="48" id="com.alibaba.druid.pool.WrapperAdapter" style="stroke: #A80036; stroke-width: 1.5;" width="130" x="445" y="294"/><ellipse cx="460" cy="310" fill="#ADD1B2" rx="11" ry="11" style="stroke: #A80036; stroke-width: 1.0;"/><path d="M463.5156,314.0781 L463.5156,315.6719 Q462.375,316.1719 459.6094,316.1719 Q457.0469,316.1719 455.6875,314.5391 Q454.3281,312.9063 454.3281,309.9219 Q454.3281,307.0469 455.8125,305.3672 Q457.2969,303.6875 459.8594,303.6875 Q462.6875,303.6875 464.0469,304.4063 L463.1719,306.125 Q461.125,305.0469 459.8594,305.0469 Q459.0781,305.0469 458.0156,306.3672 Q456.9531,307.6875 456.9531,309.9375 Q456.9531,312.3125 457.9531,313.5625 Q458.9531,314.8125 459.8594,314.8125 Q460.9375,314.8125 463.5156,314.0781 Z "/><text fill="#000000" font-family="sans-serif" font-size="12" lengthAdjust="spacingAndGlyphs" textLength="98" x="474" y="314.7783">WrapperAdapter</text><line style="stroke: #A80036; stroke-width: 1.5;" x1="446" x2="574" y1="326" y2="326"/><line style="stroke: #A80036; stroke-width: 1.5;" x1="446" x2="574" y1="334" y2="334"/><!--class com.alibaba.druid.pool.DruidAbstractDataSourceMBean--><rect fill="#FEFECE" filter="url(#fhnnzpxsr69le)" height="48" id="com.alibaba.druid.pool.DruidAbstractDataSourceMBean" style="stroke: #A80036; stroke-width: 1.5;" width="228" x="133" y="294"/><ellipse cx="148" cy="310" fill="#B4A7E5" rx="11" ry="11" style="stroke: #A80036; stroke-width: 1.0;"/><path d="M151.8125,316 L144.375,316 L144.375,314.9844 L146.8125,314.8125 L146.8125,305.0469 L144.375,304.8906 L144.375,303.8594 L151.8125,303.8594 L151.8125,304.8906 L149.375,305.0469 L149.375,314.8125 L151.8125,314.9844 L151.8125,316 Z "/><text fill="#000000" font-family="sans-serif" font-size="12" font-style="italic" lengthAdjust="spacingAndGlyphs" textLength="196" x="162" y="314.7783">DruidAbstractDataSourceMBean</text><line style="stroke: #A80036; stroke-width: 1.5;" x1="134" x2="360" y1="326" y2="326"/><line style="stroke: #A80036; stroke-width: 1.5;" x1="134" x2="360" y1="334" y2="334"/><!--class com.alibaba.druid.pool.DruidDataSourceMBean--><rect fill="#FEFECE" filter="url(#fhnnzpxsr69le)" height="48" id="com.alibaba.druid.pool.DruidDataSourceMBean" style="stroke: #A80036; stroke-width: 1.5;" width="172" x="38" y="169"/><ellipse cx="53" cy="185" fill="#B4A7E5" rx="11" ry="11" style="stroke: #A80036; stroke-width: 1.0;"/><path d="M56.8125,191 L49.375,191 L49.375,189.9844 L51.8125,189.8125 L51.8125,180.0469 L49.375,179.8906 L49.375,178.8594 L56.8125,178.8594 L56.8125,179.8906 L54.375,180.0469 L54.375,189.8125 L56.8125,189.9844 L56.8125,191 Z "/><text fill="#000000" font-family="sans-serif" font-size="12" font-style="italic" lengthAdjust="spacingAndGlyphs" textLength="140" x="67" y="189.7783">DruidDataSourceMBean</text><line style="stroke: #A80036; stroke-width: 1.5;" x1="39" x2="209" y1="201" y2="201"/><line style="stroke: #A80036; stroke-width: 1.5;" x1="39" x2="209" y1="209" y2="209"/><!--class com.alibaba.druid.pool.DruidAbstractDataSource--><rect fill="#FEFECE" filter="url(#fhnnzpxsr69le)" height="48" id="com.alibaba.druid.pool.DruidAbstractDataSource" style="stroke: #A80036; stroke-width: 1.5;" width="193" x="245.5" y="169"/><ellipse cx="260.5" cy="185" fill="#ADD1B2" rx="11" ry="11" style="stroke: #A80036; stroke-width: 1.0;"/><path d="M264.0156,189.0781 L264.0156,190.6719 Q262.875,191.1719 260.1094,191.1719 Q257.5469,191.1719 256.1875,189.5391 Q254.8281,187.9063 254.8281,184.9219 Q254.8281,182.0469 256.3125,180.3672 Q257.7969,178.6875 260.3594,178.6875 Q263.1875,178.6875 264.5469,179.4063 L263.6719,181.125 Q261.625,180.0469 260.3594,180.0469 Q259.5781,180.0469 258.5156,181.3672 Q257.4531,182.6875 257.4531,184.9375 Q257.4531,187.3125 258.4531,188.5625 Q259.4531,189.8125 260.3594,189.8125 Q261.4375,189.8125 264.0156,189.0781 Z "/><text fill="#000000" font-family="sans-serif" font-size="12" lengthAdjust="spacingAndGlyphs" textLength="161" x="274.5" y="189.7783">DruidAbstractDataSource</text><line style="stroke: #A80036; stroke-width: 1.5;" x1="246.5" x2="437.5" y1="201" y2="201"/><line style="stroke: #A80036; stroke-width: 1.5;" x1="246.5" x2="437.5" y1="209" y2="209"/><!--class com.alibaba.druid.pool.DruidDataSource--><rect fill="#FEFECE" filter="url(#fhnnzpxsr69le)" height="48" id="com.alibaba.druid.pool.DruidDataSource" style="stroke: #A80036; stroke-width: 1.5;" width="137" x="487.5" y="61"/><ellipse cx="502.5" cy="77" fill="#ADD1B2" rx="11" ry="11" style="stroke: #A80036; stroke-width: 1.0;"/><path d="M506.0156,81.0781 L506.0156,82.6719 Q504.875,83.1719 502.1094,83.1719 Q499.5469,83.1719 498.1875,81.5391 Q496.8281,79.9063 496.8281,76.9219 Q496.8281,74.0469 498.3125,72.3672 Q499.7969,70.6875 502.3594,70.6875 Q505.1875,70.6875 506.5469,71.4063 L505.6719,73.125 Q503.625,72.0469 502.3594,72.0469 Q501.5781,72.0469 500.5156,73.3672 Q499.4531,74.6875 499.4531,76.9375 Q499.4531,79.3125 500.4531,80.5625 Q501.4531,81.8125 502.3594,81.8125 Q503.4375,81.8125 506.0156,81.0781 Z "/><text fill="#000000" font-family="sans-serif" font-size="12" lengthAdjust="spacingAndGlyphs" textLength="105" x="516.5" y="81.7783">DruidDataSource</text><line style="stroke: #A80036; stroke-width: 1.5;" x1="488.5" x2="623.5" y1="93" y2="93"/><line style="stroke: #A80036; stroke-width: 1.5;" x1="488.5" x2="623.5" y1="101" y2="101"/><!--class com.alibaba.druid.pool.ManagedDataSource--><rect fill="#FEFECE" filter="url(#fhnnzpxsr69le)" height="48" id="com.alibaba.druid.pool.ManagedDataSource" style="stroke: #A80036; stroke-width: 1.5;" width="151" x="473.5" y="169"/><ellipse cx="488.5" cy="185" fill="#B4A7E5" rx="11" ry="11" style="stroke: #A80036; stroke-width: 1.0;"/><path d="M492.3125,191 L484.875,191 L484.875,189.9844 L487.3125,189.8125 L487.3125,180.0469 L484.875,179.8906 L484.875,178.8594 L492.3125,178.8594 L492.3125,179.8906 L489.875,180.0469 L489.875,189.8125 L492.3125,189.9844 L492.3125,191 Z "/><text fill="#000000" font-family="sans-serif" font-size="12" font-style="italic" lengthAdjust="spacingAndGlyphs" textLength="119" x="502.5" y="189.7783">ManagedDataSource</text><line style="stroke: #A80036; stroke-width: 1.5;" x1="474.5" x2="623.5" y1="201" y2="201"/><line style="stroke: #A80036; stroke-width: 1.5;" x1="474.5" x2="623.5" y1="209" y2="209"/><!--class javax.sql.CommonDataSource--><rect fill="#FEFECE" filter="url(#fhnnzpxsr69le)" height="48" id="javax.sql.CommonDataSource" style="stroke: #A80036; stroke-width: 1.5;" width="144" x="1046" y="419"/><ellipse cx="1061" cy="435" fill="#B4A7E5" rx="11" ry="11" style="stroke: #A80036; stroke-width: 1.0;"/><path d="M1064.8125,441 L1057.375,441 L1057.375,439.9844 L1059.8125,439.8125 L1059.8125,430.0469 L1057.375,429.8906 L1057.375,428.8594 L1064.8125,428.8594 L1064.8125,429.8906 L1062.375,430.0469 L1062.375,439.8125 L1064.8125,439.9844 L1064.8125,441 Z "/><text fill="#000000" font-family="sans-serif" font-size="12" font-style="italic" lengthAdjust="spacingAndGlyphs" textLength="112" x="1075" y="439.7783">CommonDataSource</text><line style="stroke: #A80036; stroke-width: 1.5;" x1="1047" x2="1189" y1="451" y2="451"/><line style="stroke: #A80036; stroke-width: 1.5;" x1="1047" x2="1189" y1="459" y2="459"/><!--class javax.sql.DataSource--><rect fill="#FEFECE" filter="url(#fhnnzpxsr69le)" height="48" id="javax.sql.DataSource" style="stroke: #A80036; stroke-width: 1.5;" width="102" x="964" y="294"/><ellipse cx="979" cy="310" fill="#B4A7E5" rx="11" ry="11" style="stroke: #A80036; stroke-width: 1.0;"/><path d="M982.8125,316 L975.375,316 L975.375,314.9844 L977.8125,314.8125 L977.8125,305.0469 L975.375,304.8906 L975.375,303.8594 L982.8125,303.8594 L982.8125,304.8906 L980.375,305.0469 L980.375,314.8125 L982.8125,314.9844 L982.8125,316 Z "/><text fill="#000000" font-family="sans-serif" font-size="12" font-style="italic" lengthAdjust="spacingAndGlyphs" textLength="70" x="993" y="314.7783">DataSource</text><line style="stroke: #A80036; stroke-width: 1.5;" x1="965" x2="1065" y1="326" y2="326"/><line style="stroke: #A80036; stroke-width: 1.5;" x1="965" x2="1065" y1="334" y2="334"/><!--class javax.sql.ConnectionPoolDataSource--><rect fill="#FEFECE" filter="url(#fhnnzpxsr69le)" height="48" id="javax.sql.ConnectionPoolDataSource" style="stroke: #A80036; stroke-width: 1.5;" width="200" x="1101" y="294"/><ellipse cx="1116" cy="310" fill="#B4A7E5" rx="11" ry="11" style="stroke: #A80036; stroke-width: 1.0;"/><path d="M1119.8125,316 L1112.375,316 L1112.375,314.9844 L1114.8125,314.8125 L1114.8125,305.0469 L1112.375,304.8906 L1112.375,303.8594 L1119.8125,303.8594 L1119.8125,304.8906 L1117.375,305.0469 L1117.375,314.8125 L1119.8125,314.9844 L1119.8125,316 Z "/><text fill="#000000" font-family="sans-serif" font-size="12" font-style="italic" lengthAdjust="spacingAndGlyphs" textLength="168" x="1130" y="314.7783">ConnectionPoolDataSource</text><line style="stroke: #A80036; stroke-width: 1.5;" x1="1102" x2="1300" y1="326" y2="326"/><line style="stroke: #A80036; stroke-width: 1.5;" x1="1102" x2="1300" y1="334" y2="334"/><!--class com.alibaba.druid.pool.jdbc.DataSourceProxy--><rect fill="#FEFECE" filter="url(#fhnnzpxsr69le)" height="48" id="com.alibaba.druid.pool.jdbc.DataSourceProxy" style="stroke: #A80036; stroke-width: 1.5;" width="137" x="681.5" y="294"/><ellipse cx="696.5" cy="310" fill="#B4A7E5" rx="11" ry="11" style="stroke: #A80036; stroke-width: 1.0;"/><path d="M700.3125,316 L692.875,316 L692.875,314.9844 L695.3125,314.8125 L695.3125,305.0469 L692.875,304.8906 L692.875,303.8594 L700.3125,303.8594 L700.3125,304.8906 L697.875,305.0469 L697.875,314.8125 L700.3125,314.9844 L700.3125,316 Z "/><text fill="#000000" font-family="sans-serif" font-size="12" font-style="italic" lengthAdjust="spacingAndGlyphs" textLength="105" x="710.5" y="314.7783">DataSourceProxy</text><line style="stroke: #A80036; stroke-width: 1.5;" x1="682.5" x2="817.5" y1="326" y2="326"/><line style="stroke: #A80036; stroke-width: 1.5;" x1="682.5" x2="817.5" y1="334" y2="334"/><!--class javax.management.MBeanRegistration--><rect fill="#FEFECE" filter="url(#fhnnzpxsr69le)" height="48" id="javax.management.MBeanRegistration" style="stroke: #A80036; stroke-width: 1.5;" width="151" x="1215.5" y="169"/><ellipse cx="1230.5" cy="185" fill="#B4A7E5" rx="11" ry="11" style="stroke: #A80036; stroke-width: 1.0;"/><path d="M1234.3125,191 L1226.875,191 L1226.875,189.9844 L1229.3125,189.8125 L1229.3125,180.0469 L1226.875,179.8906 L1226.875,178.8594 L1234.3125,178.8594 L1234.3125,179.8906 L1231.875,180.0469 L1231.875,189.8125 L1234.3125,189.9844 L1234.3125,191 Z "/><text fill="#000000" font-family="sans-serif" font-size="12" font-style="italic" lengthAdjust="spacingAndGlyphs" textLength="119" x="1244.5" y="189.7783">MBeanRegistration</text><line style="stroke: #A80036; stroke-width: 1.5;" x1="1216.5" x2="1365.5" y1="201" y2="201"/><line style="stroke: #A80036; stroke-width: 1.5;" x1="1216.5" x2="1365.5" y1="209" y2="209"/><!--class javax.naming.Referenceable--><rect fill="#FEFECE" filter="url(#fhnnzpxsr69le)" height="48" id="javax.naming.Referenceable" style="stroke: #A80036; stroke-width: 1.5;" width="123" x="731.5" y="169"/><ellipse cx="746.5" cy="185" fill="#B4A7E5" rx="11" ry="11" style="stroke: #A80036; stroke-width: 1.0;"/><path d="M750.3125,191 L742.875,191 L742.875,189.9844 L745.3125,189.8125 L745.3125,180.0469 L742.875,179.8906 L742.875,178.8594 L750.3125,178.8594 L750.3125,179.8906 L747.875,180.0469 L747.875,189.8125 L750.3125,189.9844 L750.3125,191 Z "/><text fill="#000000" font-family="sans-serif" font-size="12" font-style="italic" lengthAdjust="spacingAndGlyphs" textLength="91" x="760.5" y="189.7783">Referenceable</text><line style="stroke: #A80036; stroke-width: 1.5;" x1="732.5" x2="853.5" y1="201" y2="201"/><line style="stroke: #A80036; stroke-width: 1.5;" x1="732.5" x2="853.5" y1="209" y2="209"/><!--class javax.lang.Cloneable--><rect fill="#FEFECE" filter="url(#fhnnzpxsr69le)" height="48" id="javax.lang.Cloneable" style="stroke: #A80036; stroke-width: 1.5;" width="95" x="911.5" y="169"/><ellipse cx="926.5" cy="185" fill="#B4A7E5" rx="11" ry="11" style="stroke: #A80036; stroke-width: 1.0;"/><path d="M930.3125,191 L922.875,191 L922.875,189.9844 L925.3125,189.8125 L925.3125,180.0469 L922.875,179.8906 L922.875,178.8594 L930.3125,178.8594 L930.3125,179.8906 L927.875,180.0469 L927.875,189.8125 L930.3125,189.9844 L930.3125,191 Z "/><text fill="#000000" font-family="sans-serif" font-size="12" font-style="italic" lengthAdjust="spacingAndGlyphs" textLength="63" x="940.5" y="189.7783">Cloneable</text><line style="stroke: #A80036; stroke-width: 1.5;" x1="912.5" x2="1005.5" y1="201" y2="201"/><line style="stroke: #A80036; stroke-width: 1.5;" x1="912.5" x2="1005.5" y1="209" y2="209"/><!--class javax.io.Closeable--><rect fill="#FEFECE" filter="url(#fhnnzpxsr69le)" height="48" id="javax.io.Closeable" style="stroke: #A80036; stroke-width: 1.5;" width="95" x="1063.5" y="169"/><ellipse cx="1078.5" cy="185" fill="#B4A7E5" rx="11" ry="11" style="stroke: #A80036; stroke-width: 1.0;"/><path d="M1082.3125,191 L1074.875,191 L1074.875,189.9844 L1077.3125,189.8125 L1077.3125,180.0469 L1074.875,179.8906 L1074.875,178.8594 L1082.3125,178.8594 L1082.3125,179.8906 L1079.875,180.0469 L1079.875,189.8125 L1082.3125,189.9844 L1082.3125,191 Z "/><text fill="#000000" font-family="sans-serif" font-size="12" font-style="italic" lengthAdjust="spacingAndGlyphs" textLength="63" x="1092.5" y="189.7783">Closeable</text><line style="stroke: #A80036; stroke-width: 1.5;" x1="1064.5" x2="1157.5" y1="201" y2="201"/><line style="stroke: #A80036; stroke-width: 1.5;" x1="1064.5" x2="1157.5" y1="209" y2="209"/><path d="M978.5,527 L978.5,554.1577 A0,0 0 0 0 978.5,554.1577 L1257.5,554.1577 A0,0 0 0 0 1257.5,554.1577 L1257.5,537 L1247.5,527 L1122,527 L1118,467.1179 L1114,527 L978.5,527 A0,0 0 0 0 978.5,527 " fill="#FBFB77" filter="url(#fhnnzpxsr69le)" style="stroke: #A80036; stroke-width: 1.0;"/><path d="M1247.5,527 L1247.5,537 L1257.5,537 L1247.5,527 " fill="#FBFB77" style="stroke: #A80036; stroke-width: 1.0;"/><text fill="#000000" font-family="sans-serif" font-size="13" lengthAdjust="spacingAndGlyphs" textLength="258" x="984.5" y="545.7554">定义DataSource与XADataSource共有的方法</text><path d="M1333.5,421 L1333.5,465.3154 A0,0 0 0 0 1333.5,465.3154 L1726.5,465.3154 A0,0 0 0 0 1726.5,465.3154 L1726.5,431 L1716.5,421 L1477.61,421 L1262.88,342.135 L1469.61,421 L1333.5,421 A0,0 0 0 0 1333.5,421 " fill="#FBFB77" filter="url(#fhnnzpxsr69le)" style="stroke: #A80036; stroke-width: 1.0;"/><path d="M1716.5,421 L1716.5,431 L1726.5,431 L1716.5,421 " fill="#FBFB77" style="stroke: #A80036; stroke-width: 1.0;"/><text fill="#000000" font-family="sans-serif" font-size="13" lengthAdjust="spacingAndGlyphs" textLength="372" x="1339.5" y="439.7554">创建PooledConnection对象的工厂类，实现这个接口的对象可以</text><text fill="#000000" font-family="sans-serif" font-size="13" lengthAdjust="spacingAndGlyphs" textLength="157" x="1339.5" y="456.9131">在nameing service中注册</text><path d="M1128,63 L1128,107.3154 A0,0 0 0 0 1128,107.3154 L1287,107.3154 L1291,168.63 L1295,107.3154 L1454,107.3154 A0,0 0 0 0 1454,107.3154 L1454,73 L1444,63 L1128,63 A0,0 0 0 0 1128,63 " fill="#FBFB77" filter="url(#fhnnzpxsr69le)" style="stroke: #A80036; stroke-width: 1.0;"/><path d="M1444,63 L1444,73 L1454,73 L1444,63 " fill="#FBFB77" style="stroke: #A80036; stroke-width: 1.0;"/><text fill="#000000" font-family="sans-serif" font-size="13" lengthAdjust="spacingAndGlyphs" textLength="305" x="1134" y="81.7554">为了执行MBean Server在注册与去注册前后执行操作</text><text fill="#000000" font-family="sans-serif" font-size="13" lengthAdjust="spacingAndGlyphs" textLength="126" x="1134" y="98.9131">的MBean可实现的接口</text><!--link javax.sql.DataSource to java.sql.Wrapper--><path d="M963.906,338.219 C905.394,360.228 809.654,396.24 747.741,419.528 " fill="none" id="javax.sql.DataSource-java.sql.Wrapper" style="stroke: #A80036; stroke-width: 1.0;"/><polygon fill="none" points="750.103,426.119,728.919,426.609,745.174,413.015,750.103,426.119" style="stroke: #A80036; stroke-width: 1.0;"/><!--link javax.sql.DataSource to javax.sql.CommonDataSource--><path d="M1034.37,342.135 C1048.83,359.401 1068.92,383.384 1085.78,403.52 " fill="none" id="javax.sql.DataSource-javax.sql.CommonDataSource" style="stroke: #A80036; stroke-width: 1.0;"/><polygon fill="none" points="1091.24,399.14,1098.71,418.968,1080.51,408.129,1091.24,399.14" style="stroke: #A80036; stroke-width: 1.0;"/><!--link javax.sql.ConnectionPoolDataSource to javax.sql.CommonDataSource--><path d="M1185.39,342.135 C1173.97,359.058 1158.2,382.432 1144.78,402.313 " fill="none" id="javax.sql.ConnectionPoolDataSource-javax.sql.CommonDataSource" style="stroke: #A80036; stroke-width: 1.0;"/><polygon fill="none" points="1150.53,406.305,1133.54,418.968,1138.93,398.474,1150.53,406.305" style="stroke: #A80036; stroke-width: 1.0;"/><!--link com.alibaba.druid.pool.DruidDataSourceMBean to com.alibaba.druid.pool.DruidAbstractDataSourceMBean--><path d="M147.135,217.135 C164.745,234.745 189.342,259.342 209.717,279.717 " fill="none" id="com.alibaba.druid.pool.DruidDataSourceMBean-com.alibaba.druid.pool.DruidAbstractDataSourceMBean" style="stroke: #A80036; stroke-width: 1.0;"/><polygon fill="none" points="214.776,274.876,223.968,293.968,204.876,284.776,214.776,274.876" style="stroke: #A80036; stroke-width: 1.0;"/><!--link com.alibaba.druid.pool.DruidAbstractDataSource to com.alibaba.druid.pool.jdbc.DataSourceProxy--><path d="M387.681,217.104 C408.06,226.279 432.691,235.858 456,241 C496.183,249.865 601.694,236.82 641,249 C663.882,256.091 686.749,269.201 705.587,282.031 " fill="none" id="com.alibaba.druid.pool.DruidAbstractDataSource-com.alibaba.druid.pool.jdbc.DataSourceProxy" style="stroke: #A80036; stroke-width: 1.0;"/><polygon fill="none" points="709.804,276.441,721.96,293.797,701.634,287.81,709.804,276.441" style="stroke: #A80036; stroke-width: 1.0;"/><!--link com.alibaba.druid.pool.DruidAbstractDataSource to javax.sql.DataSource--><path d="M387.081,217.102 C407.556,226.399 432.426,236.072 456,241 C538.459,258.237 752.293,232.995 835,249 C873.931,256.534 915.459,271.701 948.806,285.803 " fill="none" id="com.alibaba.druid.pool.DruidAbstractDataSource-javax.sql.DataSource" style="stroke: #A80036; stroke-width: 1.0;"/><polygon fill="none" points="951.878,279.506,967.413,293.917,946.282,292.339,951.878,279.506" style="stroke: #A80036; stroke-width: 1.0;"/><!--link com.alibaba.druid.pool.WrapperAdapter to java.sql.Wrapper--><path d="M543.48,342.135 C570.083,360.518 607.704,386.515 637.893,407.376 " fill="none" id="com.alibaba.druid.pool.WrapperAdapter-java.sql.Wrapper" style="stroke: #A80036; stroke-width: 1.0;"/><polygon fill="none" points="642.195,401.84,654.67,418.968,634.236,413.357,642.195,401.84" style="stroke: #A80036; stroke-width: 1.0;"/><!--link com.alibaba.druid.pool.DruidAbstractDataSource to com.alibaba.druid.pool.WrapperAdapter--><path d="M373.6,217.135 C398.59,235.432 433.884,261.272 462.308,282.083 " fill="none" id="com.alibaba.druid.pool.DruidAbstractDataSource-com.alibaba.druid.pool.WrapperAdapter" style="stroke: #A80036; stroke-width: 1.0;"/><polygon fill="none" points="466.54,276.506,478.542,293.968,458.27,287.802,466.54,276.506" style="stroke: #A80036; stroke-width: 1.0;"/><!--link com.alibaba.druid.pool.DruidAbstractDataSource to com.alibaba.druid.pool.DruidAbstractDataSourceMBean--><path d="M324.131,217.135 C310.928,234.229 292.64,257.908 277.186,277.918 " fill="none" id="com.alibaba.druid.pool.DruidAbstractDataSource-com.alibaba.druid.pool.DruidAbstractDataSourceMBean" style="stroke: #A80036; stroke-width: 1.0;"/><polygon fill="none" points="282.554,282.419,264.789,293.968,271.474,273.861,282.554,282.419" style="stroke: #A80036; stroke-width: 1.0;"/><!--link com.alibaba.druid.pool.ManagedDataSource to javax.sql.DataSource--><path d="M590.282,217.247 C608.605,226.388 630.786,235.901 652,241 C731.156,260.026 755.252,232.631 835,249 C873.57,256.917 914.781,271.959 948.024,285.886 " fill="none" id="com.alibaba.druid.pool.ManagedDataSource-javax.sql.DataSource" style="stroke: #A80036; stroke-width: 1.0;"/><polygon fill="none" points="951.003,279.548,966.597,293.895,945.46,292.403,951.003,279.548" style="stroke: #A80036; stroke-width: 1.0;"/><!--link com.alibaba.druid.pool.DruidDataSource to com.alibaba.druid.pool.DruidAbstractDataSource--><path d="M490.482,109.011 C478.845,113.629 466.951,118.703 456,124 C435.247,134.037 413.307,146.613 394.276,158.211 " fill="none" id="com.alibaba.druid.pool.DruidDataSource-com.alibaba.druid.pool.DruidAbstractDataSource" style="stroke: #A80036; stroke-width: 1.0; stroke-dasharray: 7.0,7.0;"/><polygon fill="none" points="397.735,164.302,377.054,168.916,390.344,152.412,397.735,164.302" style="stroke: #A80036; stroke-width: 1.0;"/><!--link com.alibaba.druid.pool.DruidDataSource to com.alibaba.druid.pool.DruidDataSourceMBean--><path d="M487.491,90.22 C405.719,95.904 274.223,107.273 228,124 C206.853,131.653 185.682,144.349 168.014,156.713 " fill="none" id="com.alibaba.druid.pool.DruidDataSource-com.alibaba.druid.pool.DruidDataSourceMBean" style="stroke: #A80036; stroke-width: 1.0; stroke-dasharray: 7.0,7.0;"/><polygon fill="none" points="171.9,162.544,151.645,168.766,163.599,151.27,171.9,162.544" style="stroke: #A80036; stroke-width: 1.0;"/><!--link com.alibaba.druid.pool.DruidDataSource to com.alibaba.druid.pool.ManagedDataSource--><path d="M554.481,109 C553.716,120.588 552.762,135.029 551.866,148.601 " fill="none" id="com.alibaba.druid.pool.DruidDataSource-com.alibaba.druid.pool.ManagedDataSource" style="stroke: #A80036; stroke-width: 1.0; stroke-dasharray: 7.0,7.0;"/><polygon fill="none" points="558.843,149.183,550.54,168.678,544.873,148.261,558.843,149.183" style="stroke: #A80036; stroke-width: 1.0;"/><!--link com.alibaba.druid.pool.DruidDataSource to javax.sql.ConnectionPoolDataSource--><path d="M620.14,109.095 C627.949,113.381 635.465,118.331 642,124 C688.3,164.161 661.73,210.687 715,241 C732.773,251.114 1063.3,243.501 1083,249 C1108.01,255.983 1133.28,269.49 1153.98,282.638 " fill="none" id="com.alibaba.druid.pool.DruidDataSource-javax.sql.ConnectionPoolDataSource" style="stroke: #A80036; stroke-width: 1.0; stroke-dasharray: 7.0,7.0;"/><polygon fill="none" points="1158.14,276.996,1170.88,293.927,1150.36,288.637,1158.14,276.996" style="stroke: #A80036; stroke-width: 1.0;"/><!--link com.alibaba.druid.pool.DruidDataSource to javax.management.MBeanRegistration--><path d="M624.638,86.209 C763.657,87.286 1073.87,93.187 1175,124 C1199.23,131.383 1223.76,144.723 1243.98,157.644 " fill="none" id="com.alibaba.druid.pool.DruidDataSource-javax.management.MBeanRegistration" style="stroke: #A80036; stroke-width: 1.0; stroke-dasharray: 7.0,7.0;"/><polygon fill="none" points="1248.16,152.016,1260.87,168.97,1240.36,163.643,1248.16,152.016" style="stroke: #A80036; stroke-width: 1.0;"/><!--link com.alibaba.druid.pool.DruidDataSource to javax.naming.Referenceable--><path d="M624.691,97.625 C650.38,103.505 679.299,112.011 704,124 C721.1,132.3 738.117,144.176 752.622,155.686 " fill="none" id="com.alibaba.druid.pool.DruidDataSource-javax.naming.Referenceable" style="stroke: #A80036; stroke-width: 1.0; stroke-dasharray: 7.0,7.0;"/><polygon fill="none" points="757.468,150.613,768.349,168.795,748.504,161.367,757.468,150.613" style="stroke: #A80036; stroke-width: 1.0;"/><!--link com.alibaba.druid.pool.DruidDataSource to javax.lang.Cloneable--><path d="M624.792,90.02 C703.716,95.377 827.804,106.296 871,124 C889.043,131.395 906.545,143.538 921.126,155.532 " fill="none" id="com.alibaba.druid.pool.DruidDataSource-javax.lang.Cloneable" style="stroke: #A80036; stroke-width: 1.0; stroke-dasharray: 7.0,7.0;"/><polygon fill="none" points="925.784,150.307,936.219,168.75,916.561,160.84,925.784,150.307" style="stroke: #A80036; stroke-width: 1.0;"/><!--link com.alibaba.druid.pool.DruidDataSource to javax.io.Closeable--><path d="M624.93,86.824 C736.741,88.956 952.267,96.603 1023,124 C1041.31,131.093 1058.97,143.286 1073.59,155.405 " fill="none" id="com.alibaba.druid.pool.DruidDataSource-javax.io.Closeable" style="stroke: #A80036; stroke-width: 1.0; stroke-dasharray: 7.0,7.0;"/><polygon fill="none" points="1078.37,150.28,1088.7,168.781,1069.08,160.76,1078.37,150.28" style="stroke: #A80036; stroke-width: 1.0;"/><!--
@startuml


interface java.sql.Wrapper {
}

class com.alibaba.druid.pool.WrapperAdapter {
}


interface javax.sql.CommonDataSource {
}


note bottom of javax.sql.CommonDataSource
    定义DataSource与XADataSource共有的方法
end note

interface javax.sql.DataSource {

}

interface com.alibaba.druid.pool.jdbc.DataSourceProxy {
}

interface com.alibaba.druid.pool.DruidAbstractDataSourceMBean {
}

interface  com.alibaba.druid.pool.DruidDataSourceMBean {
}


class com.alibaba.druid.pool.DruidAbstractDataSource {
}

class com.alibaba.druid.pool.DruidDataSource {

}




interface com.alibaba.druid.pool.ManagedDataSource {
} 

interface javax.sql.ConnectionPoolDataSource {
}

note bottom of  javax.sql.ConnectionPoolDataSource
    创建PooledConnection对象的工厂类，实现这个接口的对象可以
    在nameing service中注册
end note


interface javax.management.MBeanRegistration {
}

note top of javax.management.MBeanRegistration 
    为了执行MBean Server在注册与去注册前后执行操作
    的MBean可实现的接口
end note

interface javax.naming.Referenceable{
}

interface javax.lang.Cloneable{
}

interface javax.io.Closeable{
}


javax.sql.DataSource - -|>  java.sql.Wrapper
javax.sql.DataSource - -|>  javax.sql.CommonDataSource

javax.sql.ConnectionPoolDataSource - -|>  javax.sql.CommonDataSource

com.alibaba.druid.pool.DruidDataSourceMBean - -|> com.alibaba.druid.pool.DruidAbstractDataSourceMBean 

com.alibaba.druid.pool.DruidAbstractDataSource - -|> com.alibaba.druid.pool.jdbc.DataSourceProxy
com.alibaba.druid.pool.DruidAbstractDataSource - -|> javax.sql.DataSource
com.alibaba.druid.pool.WrapperAdapter - -|> java.sql.Wrapper
com.alibaba.druid.pool.DruidAbstractDataSource - -|> com.alibaba.druid.pool.WrapperAdapter
com.alibaba.druid.pool.DruidAbstractDataSource - -|> com.alibaba.druid.pool.DruidAbstractDataSourceMBean


com.alibaba.druid.pool.ManagedDataSource - -|> javax.sql.DataSource

com.alibaba.druid.pool.DruidDataSource ..|> com.alibaba.druid.pool.DruidAbstractDataSource
com.alibaba.druid.pool.DruidDataSource ..|> com.alibaba.druid.pool.DruidDataSourceMBean
com.alibaba.druid.pool.DruidDataSource ..|> com.alibaba.druid.pool.ManagedDataSource
com.alibaba.druid.pool.DruidDataSource ..|> javax.sql.ConnectionPoolDataSource
com.alibaba.druid.pool.DruidDataSource ..|> javax.management.MBeanRegistration
com.alibaba.druid.pool.DruidDataSource ..|> javax.naming.Referenceable
com.alibaba.druid.pool.DruidDataSource ..|> javax.lang.Cloneable
com.alibaba.druid.pool.DruidDataSource ..|> javax.io.Closeable
@enduml

PlantUML version 1.2019.06(Sat May 25 01:10:25 CST 2019)
(GPLV2 source distribution)
Java Runtime: Java(TM) SE Runtime Environment
JVM: Java HotSpot(TM) 64-Bit Server VM
Java Version: 1.8.0_111-b14
Operating System: Linux
OS Version: 4.15.0-30deepin-generic
Default Encoding: UTF-8
Language: zh
Country: CN
--></g></svg>